<?xml version="1.0" encoding="utf-8"?>
<!-- Generator: Adobe Illustrator 22.1.0, SVG Export Plug-In . SVG Version: 6.00 Build 0)  -->
<svg version="1.1" id="Capa_1" xmlns="http://www.w3.org/2000/svg" xmlns:xlink="http://www.w3.org/1999/xlink" x="0px" y="0px"
	 viewBox="0 0 512 512" style="enable-background:new 0 0 512 512;" xml:space="preserve">
<style type="text/css">
	.st0{fill:#D5121E;}
	.st1{fill:#FFFFFF;}
</style>
<g id="pin-mount">
	<g id="XMLID_1_">
		<path class="st0" d="M256,13c106.8,0,194,87.2,194,194c0,132.4-162.3,268.4-194,294C223.7,476.6,62,346.1,62,207
			C62,100.2,148.6,13,256,13z M376.2,275.3L256,81.3l-120.8,194l20.1,12.8l52.5-84.2l25,37.2l25-29.9l25,29.3l23.2-34.2l50.6,81.1
			L376.2,275.3z"/>
		<path class="st1" d="M256,81.3l120.2,194l-19.5,12.2L306,206.4l-23.2,34.2l-25-29.3l-25,29.9l-25-37.2l-52.5,84.2l-20.1-12.8
			L256,81.3z M292,184.4l-36-57.9l-34.8,54.9l13.4,20.1l22.6-26.8l23.2,26.8L292,184.4z"/>
		<polygon class="st0" points="256,126.5 292,184.4 280.4,201.5 257.2,174.7 234.6,201.5 221.2,181.4 		"/>
	</g>
</g>
</svg>
